<?xml version="1.0" encoding="UTF-8"?>
<svg xmlns="http://www.w3.org/2000/svg" version="1.1" xmlns:xlink="http://www.w3.org/1999/xlink" viewBox="0 0 183.6 25">
  <defs>
    <style>
      .cls-1 {
        fill: none;
      }

      .cls-2 {
        fill: #0b0a12;
      }

      .cls-3 {
        clip-path: url(#clippath);
      }
    </style>
    <clipPath id="clippath">
      <rect class="cls-1" x=".1" y=".5" width="182.9" height="24"/>
    </clipPath>
  </defs>
  <!-- Generator: Adobe Illustrator 28.6.0, SVG Export Plug-In . SVG Version: 1.2.0 Build 709)  -->
  <g>
    <g id="Layer_1">
      <g class="cls-3">
        <g>
          <path class="cls-2" d="M52.5,24.5V.5h4.5v24h-4.5Z"/>
          <path class="cls-2" d="M61,24.5V.5h5.9l8.9,16.9h.7V.5h4.4v24h-5.9l-8.9-16.9h-.7v16.9h-4.5Z"/>
          <path class="cls-2" d="M85,24.5V.5h16v4.1h-11.5v6.1h10.7v3.9h-10.7v10s-4.5,0-4.5,0Z"/>
          <path class="cls-2" d="M104.6,24.5V.5h4.5v24h-4.5Z"/>
          <path class="cls-2" d="M113,24.5V.5h5.9l8.9,16.9h.7V.5h4.4v24h-5.9l-8.9-16.9h-.7v16.9h-4.5,0Z"/>
          <path class="cls-2" d="M137,24.5V.5h4.5v24h-4.5Z"/>
          <path class="cls-2" d="M151.9,24.5V4.8h-7.2V.5h18.9v4.2h-7.2v19.8h-4.4,0Z"/>
          <path class="cls-2" d="M166.8,24.5V.5h16.2v4.1h-11.7v6h11.1v3.9h-11.1v6h11.7v4.1h-16.2Z"/>
          <path class="cls-2" d="M46.6,11.1l-3.9-6.6c-1.4-2.4-4-3.9-6.9-3.9h-7.8l-3.9,6.7-1.6-2.8c-1.4-2.4-4-3.9-6.9-3.9h-7.8l-3.9,6.7h0L.1,13.9l3.9,6.6c1.4,2.4,4,3.9,6.9,3.9h7.8l3.9-6.7,1.6,2.8c1.4,2.4,4,3.9,6.9,3.9h7.8l3.9-6.7h0l3.9-6.7h0ZM9.4,16.5L4,7.3h10.8c.9,0,1.8.5,2.3,1.3l5.4,9.2h-10.8c-.9,0-1.8-.5-2.3-1.3h0ZM29.6,16.5l-5.4-9.2h10.8c.9,0,1.8.5,2.3,1.3l5.4,9.2h-10.8c-.9,0-1.8-.5-2.3-1.3Z"/>
        </g>
      </g>
    </g>
  </g>
</svg>