<svg id="Layer_1" data-name="Layer 1" xmlns="http://www.w3.org/2000/svg" viewBox="0 0 900 176">
  <defs>
    <style>
      .cls-1 {
        fill: #0b0a12;
      }
    </style>
  </defs>
  <path class="cls-1" d="M246.1245,176h-32.83L307.0123,0,400.578,176h-32.83L307.1638,61.19ZM869.8676,31.0588V139.36L767.3722,31.0588H733.526V175.8863h30.1324V67.883L866.1158,176H900V31.0588ZM596.5424,114.633h79.73l9.3428-27.3306H596.5424V58.3541H712.6288V31.0588H567.052V176H717.9191V148.6693H596.5424ZM457.8035,142.6841,397.5055,31.0588H364.1618L442.5685,176h30.47L551.4451,31.0588H518.1014Zm-358.96-30.0807L33.8192,31.0588H0V176H29.7666V68.5149l68.6985,86.63,69.4182-86.5871V176h29.8046V31.0588H163.9825Z"/>
</svg>
