<?xml version="1.0" encoding="UTF-8"?>
<svg width="211px" height="55px" viewBox="0 0 211 55" version="1.1" xmlns="http://www.w3.org/2000/svg" xmlns:xlink="http://www.w3.org/1999/xlink">
    <title>logo/licorice</title>
    <g id="Converge-2022" stroke="none" stroke-width="1" fill="none" fill-rule="evenodd">
        <g id="Converge-LP-Desktop" transform="translate(-615.000000, -138.000000)" fill="#6B6580">
            <g id="logo/licorice" transform="translate(615.000000, 139.000000)">
                <path d="M88.3942222,34.2619033 C87.9915674,33.9264544 87.4356529,33.9398079 86.9798217,34.2934451 C85.2486847,35.62488 83.242377,36.8566242 80.3095452,36.8566242 C74.9415111,36.8566242 70.5745409,32.3726149 70.5745409,26.8606172 C70.5745409,21.3260567 74.923863,16.8240893 80.2700693,16.8240893 C82.5977577,16.8240893 85.0996049,17.791987 86.94499,19.3969381 C87.2768202,19.7280126 87.5842683,19.7837288 87.7839702,19.7706056 C87.9657919,19.7595544 88.2319063,19.6821963 88.4745674,19.3803614 L90.2212625,17.5981312 C90.4497587,17.3702009 90.5705087,17.0768847 90.5614525,16.7720567 C90.552164,16.4665381 90.411676,16.1778265 90.162513,15.957494 C87.1221674,13.3250149 84.0588327,12.1505986 80.2296645,12.1505986 C72.0555861,12.1505986 65.4050476,18.7854405 65.4050476,26.9405079 C65.4050476,35.0513707 72.0555861,41.6498358 80.2296645,41.6498358 C84.075552,41.6498358 87.5294664,40.2737358 90.2207981,37.6668126 C90.4520808,37.4363498 90.5837448,37.1045847 90.5732952,36.779266 C90.5640068,36.4970009 90.4472044,36.2442056 90.2586486,36.08028 L88.3942222,34.2619033 Z M101.102579,12.5505816 L98.4581541,12.5505816 C97.8606738,12.5505816 97.3363402,13.0727491 97.3363402,13.6679002 L97.3363402,40.1326723 C97.3363402,40.7278235 97.8606738,41.2504514 98.4581541,41.2504514 L101.102579,41.2504514 C101.700292,41.2504514 102.224625,40.7278235 102.224625,40.1326723 L102.224625,13.6679002 C102.224625,13.0727491 101.700292,12.5505816 101.102579,12.5505816 M127.504729,21.5434653 C127.504729,24.0366537 125.431545,26.1425909 122.977533,26.1425909 L116.206941,26.1425909 L116.206941,17.1441816 L122.977533,17.1441816 C125.431545,17.1441816 127.504729,19.1587165 127.504729,21.5434653 M132.393014,21.4633444 C132.393014,16.5490305 128.313058,12.5505816 123.297753,12.5505816 L112.400065,12.5505816 C111.781686,12.5505816 111.278251,13.0520281 111.278251,13.6679002 L111.278251,40.1326723 C111.278251,40.7487747 111.781686,41.2504514 112.400065,41.2504514 L115.004782,41.2504514 C115.602495,41.2504514 116.12706,40.7278235 116.12706,40.1326723 L116.12706,30.2964467 L121.592159,30.2964467 L126.821331,40.6925979 C126.956942,40.9610491 127.316173,41.2504514 127.785241,41.2504514 L130.910576,41.2504514 C131.339006,41.2504514 131.700559,41.0582072 131.902584,40.7236793 C132.108787,40.3822444 132.111342,39.9381258 131.909318,39.5639979 L126.606999,29.7549398 C130.18654,28.1734723 132.393014,25.0284956 132.393014,21.4633444 M160.869371,34.2619033 C160.466716,33.9264544 159.910801,33.9398079 159.45497,34.2934451 C157.723833,35.62488 155.717525,36.8566242 152.784926,36.8566242 C147.416892,36.8566242 143.049457,32.3726149 143.049457,26.8606172 C143.049457,21.3260567 147.398547,16.8240893 152.744521,16.8240893 C155.072674,16.8240893 157.574753,17.791987 159.419906,19.3969381 C159.752201,19.7280126 160.058024,19.7837288 160.258887,19.7706056 C160.44094,19.7595544 160.706823,19.6821963 160.949484,19.3803614 L162.696643,17.5981312 C162.924907,17.3697405 163.045889,17.0766544 163.036369,16.7720567 C163.02708,16.4663079 162.886825,16.1778265 162.637662,15.957494 C159.597316,13.3250149 156.534446,12.1505986 152.705045,12.1505986 C144.530502,12.1505986 137.880196,18.7854405 137.880196,26.9405079 C137.880196,35.0513707 144.530502,41.6498358 152.705045,41.6498358 C156.550468,41.6498358 160.004615,40.2737358 162.696643,37.6663521 C162.927462,37.4358893 163.059125,37.1041242 163.048444,36.7790358 C163.038923,36.4970009 162.922121,36.2442056 162.733797,36.08028 L160.869371,34.2619033 Z M185.196362,36.81684 L174.699936,36.81684 L174.699936,13.6678772 C174.699936,13.072726 174.17537,12.5505586 173.577658,12.5505586 L170.933233,12.5505586 C170.314854,12.5505586 169.811419,13.0520051 169.811419,13.6678772 L169.811419,40.1326493 C169.811419,40.7489819 170.314854,41.2504284 170.933233,41.2504284 L185.196362,41.2504284 C185.815206,41.2504284 186.318873,40.7489819 186.318873,40.1326493 L186.318873,37.9341586 C186.318873,37.3182865 185.815206,36.81684 185.196362,36.81684 M208.954412,17.0242535 C209.573256,17.0242535 210.076691,16.522807 210.076691,15.9067047 L210.076691,13.6679233 C210.076691,13.0520512 209.573256,12.5506047 208.954412,12.5506047 L192.928333,12.5506047 C192.309722,12.5506047 191.806287,13.0520512 191.806287,13.6679233 L191.806287,40.1326953 C191.806287,40.7487977 192.309722,41.2504744 192.928333,41.2504744 L208.954412,41.2504744 C209.573256,41.2504744 210.076691,40.7487977 210.076691,40.1326953 L210.076691,37.9339744 C210.076691,37.3183326 209.573256,36.816886 208.954412,36.816886 L196.654864,36.816886 L196.654864,28.937407 L206.991064,28.937407 C207.61014,28.937407 208.113574,28.4359605 208.113574,27.8198581 L208.113574,25.581307 C208.113574,24.9861558 207.589009,24.4637581 206.991064,24.4637581 L196.654864,24.4637581 L196.654864,17.0242535 L208.954412,17.0242535 Z M48.1708987,10.8165401 L48.3079884,10.8242656 C48.6718173,10.8653817 49.0165273,11.0699273 49.2180545,11.4213401 L49.2180545,11.4213401 L50.3921805,13.4677915 L50.656321,13.9392621 C52.8167144,17.8888217 53.956087,22.3484021 53.956087,26.8724741 L53.956087,26.8724741 L53.9524492,27.3187215 C53.7126616,42.0167655 41.6493134,53.9002172 26.8554156,53.9002172 L26.8554156,53.9002172 L26.3098006,53.8949189 C20.4995404,53.7819507 15.0033829,51.8644487 10.3840714,48.3317768 L10.3840714,48.3317768 L8.74836234,47.0811567 L8.64621706,46.9937237 C8.16616132,46.534587 8.14706737,45.7594323 8.62953896,45.2784484 L8.62953896,45.2784484 L19.7343584,34.2041879 L19.8346515,34.1146962 C20.2169846,33.8100126 20.7520899,33.7643273 21.1846792,34.0113732 L21.1846792,34.0113732 L22.3830468,34.6960337 L22.6997276,34.8685511 C23.9792178,35.5324724 25.4082587,35.8816557 26.8554156,35.8816557 L26.8554156,35.8816557 L27.1213615,35.8778074 C31.9800918,35.7370253 35.8889727,31.7515652 35.8889727,26.8724741 L35.8889727,26.8724741 L35.8793079,26.4605997 C35.8535562,25.9106836 35.7764283,25.3586113 35.6489416,24.8145291 L35.6489416,24.8145291 L35.4204351,23.8391603 L35.3967962,23.703801 C35.3548121,23.3419542 35.4799792,22.9774282 35.7417351,22.7165548 L35.7417351,22.7165548 L38.4655325,19.999909 L38.5669838,19.9092121 C39.1610324,19.4345603 40.0637091,19.6249915 40.4052545,20.3292594 L40.4052545,20.3292594 L40.6049395,20.7582981 C41.2476971,22.1984316 41.6612093,23.736799 41.8257701,25.3190576 L41.8257701,25.3190576 L41.8721706,25.836819 C41.8975455,26.1821548 41.9114104,26.5276668 41.9114104,26.8724741 L41.9114104,26.8724741 L41.9081743,27.1861343 C41.7401736,35.3214598 35.0522667,41.8878429 26.8554156,41.8878429 L26.8554156,41.8878429 L26.3994134,41.8809133 C24.7291254,41.8301493 23.0799584,41.5010576 21.5244584,40.9128704 L21.5244584,40.9128704 L16.9765831,45.4482759 L17.4322854,45.6836787 C20.3341651,47.1378775 23.5325636,47.8940301 26.8554156,47.8940301 L26.8554156,47.8940301 L27.2069459,47.8911511 C38.6681121,47.7033028 47.9338481,38.3468601 47.9338481,26.8724741 L47.9338481,26.8724741 L47.9271825,26.3433961 C47.8739038,24.2289981 47.5017797,22.1396809 46.8306584,20.1515053 L46.8306584,20.1515053 L46.8235052,20.1584411 L46.6258983,19.5986931 C46.077897,18.113756 45.3619247,16.6917622 44.4881688,15.3602686 L44.4881688,15.3602686 L44.4221418,15.2471598 C44.1844122,14.7852836 44.2626887,14.2183953 44.6375922,13.8445034 L44.6375922,13.8445034 L47.3210532,11.1684814 C47.5592961,10.9306833 47.8662896,10.8165401 48.1708987,10.8165401 L48.1708987,10.8165401 Z M27.2187,-0.0559882953 C33.255947,-0.0559882953 38.9764839,1.86958235 43.7612596,5.51245207 L43.7612596,5.51245207 L45.40428,6.76307226 L45.5068671,6.85046821 C45.9889882,7.30942128 46.0079897,8.08442501 45.5234204,8.56578051 L45.5234204,8.56578051 L34.3707183,19.6402392 L34.2699394,19.729693 C33.8857637,20.0342782 33.3481793,20.0802814 32.9138922,19.8330539 L32.9138922,19.8330539 L31.7097157,19.147997 L31.3917466,18.9755186 C30.1070346,18.3117272 28.6719646,17.962375 27.2187,17.962375 L27.2187,17.962375 L26.9515978,17.9662236 C22.0717426,18.1070124 18.1458665,22.0926602 18.1458665,26.9715567 L18.1458665,26.9715567 L18.1555702,27.3839637 C18.1814211,27.9343618 18.2588204,28.4860535 18.3865422,29.0295016 L18.3865422,29.0295016 L18.6160422,30.0052668 L18.6397316,30.1405673 C18.6817952,30.5022771 18.5562613,30.8668227 18.2935448,31.1278723 L18.2935448,31.1278723 L15.558703,33.843131 L15.4568386,33.9338313 C14.8603369,34.4085218 13.9534004,34.2184337 13.610747,33.5139787 L13.610747,33.5139787 L13.4112925,33.0871159 C12.7690749,31.6542971 12.3538308,30.1240037 12.1856517,28.5548961 L12.1856517,28.5548961 L12.1570141,28.2613888 L12.1570141,28.2613888 L12.1343635,27.9677328 L12.1262561,27.8459356 L12.1262561,27.8459356 L12.1191965,27.7239897 L12.1034309,27.3476989 L12.1034309,27.3476989 L12.0972443,26.9715567 L12.1004944,26.6579038 C12.2692206,18.5227641 18.9860134,11.9561879 27.2187,11.9561879 L27.2187,11.9561879 L27.6766429,11.9631213 C29.3540672,12.0139131 31.0105722,12.3431713 32.5728352,12.9313585 L32.5728352,12.9313585 L37.1402843,8.39595299 L36.6825723,8.16052193 C33.7679056,6.70615328 30.55562,5.9500007 27.2187,5.9500007 L27.2187,5.9500007 L26.8691651,5.95282257 C15.3565393,6.13882637 6.04842261,15.4963922 6.04842261,26.9715567 L6.04842261,26.9715567 L6.05512053,27.5007159 C6.10865706,29.6153997 6.48256906,31.704548 7.15660826,33.6927236 L7.15660826,33.6927236 L7.16319391,33.6861842 L7.36175227,34.2459716 C7.91244058,35.7311065 8.63221565,37.153942 9.50888348,38.4845548 L9.50888348,38.4845548 L9.57507327,38.5976993 C9.81339284,39.0596793 9.73496017,39.6262299 9.35861087,40.0001218 L9.35861087,40.0001218 L6.66388174,42.6757475 L6.56061919,42.7674504 C5.99077174,43.2188626 5.13127957,43.0696998 4.75863261,42.4228888 L4.75863261,42.4228888 L3.57920217,40.3764374 L3.31391408,39.9050319 C1.14414193,35.9559858 0,31.4962003 0,26.9715567 L0,26.9715567 L0.00365364758,26.5253093 C0.244483796,11.8272692 12.3602833,-0.0559882953 27.2187,-0.0559882953 Z" id="Combined-Shape"></path>
            </g>
        </g>
    </g>
</svg>