<?xml version="1.0" encoding="UTF-8"?>
<svg id="Calque_1" xmlns="http://www.w3.org/2000/svg" version="1.1" viewBox="0 0 800 600">
  <!-- Generator: Adobe Illustrator 30.1.0, SVG Export Plug-In . SVG Version: 2.1.1 Build 136)  -->
  <defs>
    <style>
      .st0 {
        fill: #fff;
      }
    </style>
  </defs>
  <polygon class="st0" points="338 365.9 366.7 365.9 315.8 229.9 288.2 229.9 315.8 305.3 260.9 305.3 288.2 229.9 262.2 229.9 210.2 365.9 239 365.9 253.3 326.4 323.5 326.4 338 365.9"/>
  <rect class="st0" x="394.3" y="229.9" width="28.8" height="136"/>
  <polygon class="st0" points="480.6 340.5 446.3 229.9 423.1 229.9 464 365.9 496.1 365.9 538.1 229.9 513.2 229.9 480.6 340.5"/>
  <polygon class="st0" points="696.7 229.9 669.1 229.9 696.6 305.3 641.8 305.3 669.1 229.9 643.1 229.9 591.1 365.9 619.9 365.9 634.2 326.4 704.4 326.4 718.8 365.9 747.6 365.9 696.7 229.9"/>
  <rect class="st0" x="55.7" y="229.9" width="131.9" height="22.7"/>
  <rect class="st0" x="538.1" y="229.9" width="28.8" height="136"/>
  <polygon class="st0" points="187.6 279.9 187.6 252.6 52.6 344.8 52.6 365.9 189.8 365.9 189.8 344.8 93.8 344.8 187.6 279.9"/>
</svg>